<svg xmlns="http://www.w3.org/2000/svg" width="210" height="297" viewBox="0 0 210 297"><path d="m21.6 258.2c-5-1.4-9.9-6.4-11.1-11.5-1.7-7.2 1.9-14.7 8.8-18.1l2.6-1.3h83.9 83.9l2.6 1.3c3.3 1.6 6.2 4.5 7.8 7.8 1.1 2.2 1.3 3.2 1.3 6.5 0 3.4-0.2 4.4-1.3 6.6-1.7 3.4-4.4 6.1-7.7 7.7l-2.6 1.3-83 0.1c-66.3 0.1-83.4 0-85.2-0.5zM102.3 206.1C101.4 205.7 89.4 195.3 75.4 183.1 61.5 170.9 48.3 159.4 46.3 157.7c-4.8-4.1-6.1-5.9-7.3-9.5-1.2-3.8-1.2-6.2 0-10 1.2-3.9 4.5-7.6 8.3-9.5 2.3-1.1 3.2-1.3 6.6-1.3 6.4 0 5.6-0.5 24.1 15.8l11.6 10.3 0.2-54.9 0.2-54.9 1.3-2.6c1.7-3.4 4.4-6.1 7.7-7.7 2.3-1.1 3.2-1.3 6.6-1.3 3.4 0 4.4 0.2 6.6 1.3 3.3 1.6 6.2 4.5 7.8 7.8l1.3 2.6 0.2 54.9 0.2 54.9 11.6-10.3c18.6-16.4 17.7-15.8 24.1-15.8 3.4 0 4.3 0.2 6.6 1.3 3.8 1.9 7.1 5.6 8.3 9.5 0.5 1.7 0.9 4 0.9 5.1 0 3.9-2.1 8.9-4.8 11.5-3.6 3.4-58.2 50.9-59.3 51.5-0.8 0.5-2.4 0.8-3.6 0.8-1.2 0-2.8-0.4-3.6-0.8z" stroke-width="0.5"/></svg>