<?xml version="1.0"?>
<svg xmlns="http://www.w3.org/2000/svg" width="210" height="297" viewBox="0 0 210 297">
  <g transform="matrix(0.27320227 0 0 0.27320227 75.137138 102.30142)">
  	<path id="h" d="m-12.6 595c-5.2-0.7-10.8-2.4-15.7-4.9-12.2-6.1-21.5-17.4-25.2-30.3-1.7-5.9-1.7-6.3-1.9-22.6l-0.2-15.7-79.6-0.2c-75.1-0.2-79.7-0.2-82.2-0.8-10.1-2.4-18.4-6.9-25.1-13.6-3.9-3.9-6.8-8-9.4-13.3-2.6-5.3-3.8-9.4-4.6-14.6-0.8-5.6-0.8-689.4 0-695 0.7-5.3 2-9.4 4.6-14.6 5-10.2 12.4-17.6 22.6-22.6 5.3-2.6 9.4-3.8 14.6-4.6 5.6-0.8 428.7-0.8 434.3 0 5.3 0.7 9.4 2 14.6 4.6 14 6.8 23.5 19.2 26.9 34.8 0.9 4.2 0.9 14.8 0 19-1 4.7-2.3 8.4-4.5 12.7-6.8 13.5-18.5 22.5-34.2 26.3-2.5 0.6-7.3 0.6-93.9 0.7-81.2 0.1-91.3 0.2-91.3 0.6 0 0.3 0.5 1.5 1.1 2.6 1.7 3.3 2.7 6.4 4.1 12.2 0.6 2.3 0.6 10.2 0.8 115l0.2 112.5 4.5 2.3c9.9 5.1 17 12.2 21.8 21.9 3.9 7.8 5.1 13 5.1 22.2 0 9.5-1.2 14.6-5.5 22.9-1.3 2.6-2.4 4.9-2.4 5 0 0.1 68.5 0.2 152.1 0.2l152.1-0.1 0.2-149.8C371.5-132.1 371.6-141.8 372.1-144.2c1.5-6.2 2.4-8.8 4.6-13.1 12.1-24.1 41.9-33.8 66.2-21.6 14.6 7.3 24.8 21.7 26.8 38.1 0.5 4.2 0.5 688.7 0 692.9-2 16.4-12.1 30.7-26.8 38.1-16.5 8.3-35.8 6.8-51-3.9-6.1-4.3-11.8-11-15.2-17.7-2.2-4.3-3.1-6.9-4.6-13.1-0.6-2.3-0.6-12-0.8-150.5L371.2 256.9H207.3 43.4v82.7 82.7l90 0.2c85.2 0.2 90.1 0.2 92.6 0.8 4.8 1.2 8.3 2.4 12.4 4.5 13.6 6.8 23 19.2 26.3 34.6 0.9 4.2 0.9 14.8 0 19-1 4.7-2.3 8.4-4.5 12.7-6.8 13.5-18.5 22.5-34.2 26.3-2.5 0.6-7.4 0.6-92.6 0.8l-90 0.2-0.2 15.7c-0.2 16.3-0.3 16.7-1.9 22.6-3.7 13-13 24.2-25.2 30.3-8.9 4.4-18.9 6.2-28.7 4.9zM-55.7 300.9V179.3h-51-51l-0.1 121.2c0 66.6 0 121.4 0.1 121.6 0.1 0.4 10.5 0.4 51.1 0.4l50.9-0.1zm0.2-331.6c0.2-103.3 0.2-111.1 0.8-113.4 1.4-5.8 2.5-8.9 4.1-12.2 0.6-1.2 1.1-2.3 1.1-2.6 0-0.5-5.7-0.5-54.1-0.5l-54.1 0.1-0.1 119.4c0 65.7 0 119.6 0.1 119.9 0.1 0.4 10.5 0.4 51.1 0.4l50.9-0.1z"/>
    <path id="e" d="m-214 521c-5.2-0.7-10.8-2.4-15.7-4.9-14.6-7.3-24.8-21.7-26.8-38.1-0.5-4.2-0.5-688.7 0-692.9 0.7-5.7 2.3-11 4.9-16.2 7.3-14.6 21.7-24.8 38.1-26.8 4.2-0.5 428-0.5 432.2 0 16.4 2 30.7 12.1 38.1 26.8 7.1 14.1 7.1 30.3 0 44.5-7.4 14.8-22 24.9-38.4 26.8-2.3 0.3-30.4 0.3-92.4 0.3l-89-0.1-2.5-3.5c-19.8-27.9-61-27.9-80.8 0l-2.5 3.5-54.3 0.2-54.3 0.2V-39.6 80.2l95.1 0.2c103.3 0.2 95.2 0 101.9 2 10.4 3 20.2 9.9 26.4 18.7 12.3 17.4 12.3 40.1 0 57.5-6.2 8.8-16 15.7-26.4 18.7-6.7 1.9 1.4 1.7-101.9 2l-95.1 0.2v121.5 121.5l51 0.2 51 0.2v49.2 49.2l-78 0c-43.3 0-79-0.1-80.4-0.3zm257.5 0c-0.1-0.2-0.1-22.4-0.1-49.3l0.1-48.9 87.5-0.1c60.8-0.1 88.5 0 90.8 0.3 16.5 1.9 31 12 38.4 26.8 7.1 14.1 7.1 30.3 0 44.5-7.3 14.6-21.7 24.8-38.1 26.8-4.7 0.6-178.5 0.5-178.7-0.1z"/>
  </g>
</svg>